<svg version="1.1" id="Layer_1" xmlns="http://www.w3.org/2000/svg" xmlns:xlink="http://www.w3.org/1999/xlink" x="0px" y="0px"
	 width="100%" viewBox="0 0 1024 672" enable-background="new 0 0 1024 672" xml:space="preserve">
<path fill="#000000" opacity="1.000000" stroke="none" 
	d="
M391.340698,435.849670 
	C391.240448,434.469330 391.225403,433.444214 390.929413,432.507874 
	C382.929016,407.201019 393.967133,388.636047 412.210663,372.719788 
	C417.143372,368.416351 423.038208,365.577179 429.055084,363.058624 
	C430.930298,362.273682 432.930573,361.596283 432.762329,359.012573 
	C432.314667,352.138977 434.718445,346.312408 439.623901,341.322449 
	C435.889557,336.994720 432.287567,333.654968 426.659393,332.213837 
	C405.358521,326.759613 397.785156,305.545349 410.550629,287.793243 
	C411.807220,286.045837 412.353668,284.451050 412.004669,282.275970 
	C411.240814,277.515411 410.867126,272.692993 410.135529,267.926300 
	C409.553650,264.135071 410.854889,261.336334 414.144806,259.587341 
	C416.266724,258.459290 418.042023,257.156921 419.207367,254.988174 
	C432.533997,230.187469 454.508759,217.018967 480.780212,210.274048 
	C515.098511,201.463181 547.868713,205.645950 578.417542,224.049683 
	C590.478210,231.315460 600.100769,241.135193 606.787537,253.641800 
	C608.157104,256.203461 609.729004,258.360413 612.537781,259.586761 
	C615.646484,260.944092 616.815552,263.608917 616.517456,266.942902 
	C616.443359,267.772461 616.436646,268.611847 616.306702,269.432098 
	C614.907898,278.267456 615.087891,286.059174 619.930969,294.839325 
	C628.253418,309.927490 618.490479,327.060211 600.523499,332.134125 
	C596.216309,333.350494 592.504700,334.971527 589.434387,338.320648 
	C587.635681,340.282684 587.161499,341.653473 589.126038,343.751678 
	C592.598572,347.460480 594.188416,352.211182 593.893494,357.065948 
	C593.653259,361.020172 595.451599,362.266083 598.479858,363.510040 
	C609.478027,368.027740 618.949097,374.740906 626.071716,384.324310 
	C634.530579,395.705505 640.309326,408.232513 638.153076,422.816620 
	C637.065796,430.170593 635.885986,437.528229 634.693909,444.861908 
	C632.218323,460.092072 618.978882,469.704559 604.144897,468.216888 
	C590.627197,466.861267 579.115906,453.598145 579.625610,438.102020 
	C579.944275,428.415375 578.278259,419.236298 576.395874,409.968781 
	C574.469421,400.483948 573.394531,390.911774 572.753662,381.273651 
	C572.614746,379.184021 573.107788,376.799805 569.944458,376.295013 
	C566.540833,375.751831 566.151917,378.192596 565.550354,380.450653 
	C561.380371,396.103699 556.074524,411.318268 548.056152,425.469391 
	C545.336487,430.269196 542.032410,434.677399 538.223328,438.663879 
	C523.921692,453.631622 500.342987,452.800781 486.986145,437.026794 
	C473.804230,421.459473 467.954773,402.514923 461.902924,383.614136 
	C461.014618,380.839813 462.141052,375.883728 456.988190,376.425354 
	C452.068939,376.942413 454.239227,381.512115 453.971375,384.143402 
	C452.587036,397.742920 450.507538,411.203278 447.374268,424.506866 
	C446.722778,427.272980 446.698975,430.026337 447.059021,432.904297 
	C447.789825,438.746674 447.222656,444.525391 445.012115,450.086639 
	C440.047302,462.577118 428.511627,469.654419 415.361847,468.201752 
	C404.030701,466.950043 393.653961,456.456085 391.790161,444.184418 
	C391.394073,441.576355 390.725800,438.935638 391.340698,435.849670 
M446.578186,336.913788 
	C449.923065,339.090515 453.085510,341.638092 456.640961,343.386688 
	C492.964996,361.251251 529.605469,361.954407 566.491943,345.079071 
	C585.291138,336.478516 597.247375,322.411926 599.824280,301.606720 
	C601.189087,290.587494 601.404358,279.412567 601.826660,268.296021 
	C602.014465,263.354065 599.967957,258.862183 597.345276,254.715958 
	C589.378296,242.120544 578.290833,232.988724 565.192200,226.219406 
	C542.453186,214.468063 518.226013,211.818420 493.291321,215.738434 
	C470.579712,219.308960 450.828156,229.018448 435.355743,246.512390 
	C428.244781,254.552429 423.373169,263.514374 425.136261,274.628693 
	C426.268341,281.765015 425.880646,288.901764 426.273712,296.032898 
	C427.167572,312.248932 433.146149,326.063904 446.578186,336.913788 
M466.645599,357.137573 
	C464.247162,358.910736 465.195801,361.493866 465.518341,363.568085 
	C468.419769,382.228088 473.192322,400.364410 481.922028,417.232025 
	C486.075104,425.256622 491.101990,432.702271 498.619049,438.090271 
	C507.518738,444.469299 516.688599,445.058777 526.116089,439.307556 
	C531.469727,436.041656 535.657959,431.545654 539.172668,426.431183 
	C549.444580,411.483887 554.655884,394.512329 558.728333,377.098206 
	C560.237183,370.646332 561.777649,364.195404 560.501587,357.090088 
	C553.096680,359.165863 545.940308,361.156677 538.794861,363.186218 
	C537.106995,363.665619 536.770935,365.152771 536.315491,366.627441 
	C532.707214,378.312103 524.460693,385.124908 513.884033,385.238342 
	C502.756256,385.357697 494.171417,378.789154 490.515900,367.113129 
	C489.744141,364.648102 488.683899,363.017029 485.992676,362.536407 
	C479.586029,361.392303 473.496490,359.101135 466.645599,357.137573 
M580.637390,393.925262 
	C581.642334,398.884644 581.118958,404.113342 583.078003,409.132416 
	C599.360291,396.971222 614.774597,401.339142 630.382812,411.486603 
	C628.988342,403.255524 626.082336,396.453339 621.656616,390.323517 
	C614.083801,379.834747 603.946960,372.793396 591.679077,368.912079 
	C584.361816,366.597076 580.172607,369.580780 580.069763,377.029510 
	C579.996216,382.354706 580.327148,387.685486 580.637390,393.925262 
M396.859161,408.529510 
	C396.697998,409.279144 396.120361,410.061798 397.219208,410.882446 
	C412.090240,401.179779 427.395050,397.104431 443.910522,409.262848 
	C445.532135,398.904297 446.982117,389.117767 446.840088,379.122101 
	C446.698151,369.131866 442.132751,365.839355 432.722290,369.580353 
	C414.828247,376.693970 402.167603,388.817017 396.859161,408.529510 
M589.308899,442.628143 
	C587.926514,435.392975 589.734314,430.965332 595.161926,428.292755 
	C599.739807,426.038635 604.654663,427.161652 608.173279,431.265747 
	C612.138977,435.891235 612.264465,441.304504 608.582275,446.908112 
	C607.971008,447.838409 606.761536,448.479340 607.023315,449.875275 
	C612.835449,457.049133 620.159607,457.920349 624.513855,451.955780 
	C629.793274,444.723969 629.627441,432.991638 624.142883,425.709167 
	C618.747498,418.545135 608.662720,415.209534 600.469421,417.878998 
	C591.987244,420.642578 586.156616,429.563751 586.413940,439.384491 
	C586.702148,450.380310 596.008789,460.302734 606.055664,459.971527 
	C604.040527,455.626190 602.372253,451.460785 596.859253,450.392334 
	C593.205505,449.684204 590.969971,446.820557 589.308899,442.628143 
M416.046722,442.803162 
	C415.943634,442.315338 415.783875,441.831879 415.745972,441.339020 
	C415.172150,433.880035 418.951080,428.326050 425.368103,427.172028 
	C430.673889,426.217804 436.556580,430.430359 437.987610,436.208740 
	C439.484619,442.253571 435.494537,449.096832 428.833832,450.723022 
	C423.614105,451.997375 422.833984,456.167267 420.868286,460.078766 
	C434.837097,458.979828 443.513275,444.625702 438.916473,430.888885 
	C436.250641,422.922394 429.499603,417.546295 421.677765,417.161072 
	C412.187958,416.693695 404.266113,421.221008 400.523132,429.250916 
	C396.967743,436.878387 398.206696,447.960358 403.209259,453.277527 
	C406.513336,456.789398 411.613068,456.441406 416.842102,453.088623 
	C421.862091,449.869873 418.079742,447.322937 416.720367,444.491852 
	C416.576538,444.192352 416.464600,443.877533 416.046722,442.803162 
M584.771851,359.289276 
	C586.684753,355.072174 585.128967,351.519745 582.529358,348.253113 
	C581.601074,347.086731 580.496948,346.302582 578.650818,346.907043 
	C571.797729,349.150879 569.308594,352.463562 569.291565,359.813690 
	C569.288147,361.309601 569.255859,362.805725 569.218994,364.301300 
	C569.137451,367.613678 570.841003,368.159576 573.957336,367.294403 
	C573.448120,366.127991 573.081848,365.231018 572.669739,364.355652 
	C571.356995,361.567383 570.914734,358.876221 573.872192,356.832428 
	C576.679199,354.892639 579.189880,355.776672 581.544189,357.850983 
	C582.375061,358.583099 582.933533,359.804871 584.771851,359.289276 
M447.391357,356.344818 
	C454.465790,355.208008 455.643311,357.306213 453.462006,367.290436 
	C455.127075,367.856384 457.238770,368.228668 457.431610,366.053955 
	C457.808105,361.807648 457.986755,357.416473 457.284729,353.247375 
	C456.829590,350.544586 453.266815,350.091705 451.049255,348.738098 
	C446.227112,345.794769 444.192383,346.519470 442.073395,351.713196 
	C440.986420,354.377380 440.784485,357.057709 441.953125,359.782654 
	C444.249878,359.392731 445.205353,357.615112 447.391357,356.344818 
M602.317871,321.385071 
	C604.331543,323.279572 606.445801,323.519684 608.416992,321.452942 
	C609.516785,320.299774 609.799500,318.795593 608.860168,317.322113 
	C607.740234,315.565369 606.031860,314.793732 604.145996,315.559967 
	C601.873962,316.483124 600.882874,318.293610 602.317871,321.385071 
M420.745087,315.357300 
	C418.217133,315.946747 416.979767,317.548126 417.536591,320.087738 
	C417.935577,321.907501 419.378662,322.796661 421.267487,322.778900 
	C423.181732,322.760925 424.488892,321.837036 424.793274,319.922363 
	C425.198486,317.373596 424.167877,315.721497 420.745087,315.357300 
z"/>
<path fill="#000000" opacity="1.000000" stroke="none" 
	d="
M554.655273,465.721497 
	C556.265259,470.219971 553.344055,471.803558 550.410950,473.147644 
	C544.448486,475.879913 538.051147,476.988129 531.588928,477.721039 
	C514.779785,479.627533 498.048737,479.429901 481.608032,475.039886 
	C477.454559,473.930817 471.522461,473.190948 471.670746,467.663422 
	C471.806061,462.619202 477.524139,461.687317 481.544403,460.718872 
	C503.085907,455.529877 524.696594,455.559174 546.221985,460.939575 
	C549.252258,461.696991 552.272217,462.860138 554.655273,465.721497 
z"/>
<path fill="#000000" opacity="1.000000" stroke="none" 
	d="
M530.260254,231.581482 
	C542.058167,232.742172 553.080627,235.309540 563.423462,240.109589 
	C586.449890,250.795990 593.531555,265.324615 585.004089,291.039978 
	C575.354858,320.138245 553.485657,335.619293 522.201843,337.187256 
	C508.838318,337.857056 495.556671,337.366364 482.668945,333.236572 
	C455.941620,324.672028 437.054657,297.042297 438.766327,269.086426 
	C439.495361,257.178864 446.711578,249.652908 456.188507,243.898315 
	C466.878479,237.407135 478.716278,234.146057 491.009857,232.281494 
	C503.921936,230.323135 516.843750,230.020187 530.260254,231.581482 
M471.047394,291.790466 
	C470.620331,298.303864 471.774933,304.417328 476.011871,309.586243 
	C481.130341,315.830658 489.044006,315.470428 493.697510,308.900299 
	C499.007690,301.403046 499.336731,289.339020 494.444885,281.496094 
	C489.344727,273.319214 479.812134,273.138184 474.463196,281.103821 
	C472.466644,284.077057 471.501801,287.385864 471.047394,291.790466 
M529.049683,292.745117 
	C528.425232,298.930115 529.580444,304.668396 533.470703,309.653687 
	C537.707031,315.082489 544.711182,315.525543 549.574036,310.739990 
	C557.116699,303.317291 558.035095,288.201172 551.446228,279.923615 
	C546.302551,273.461670 538.217346,273.608002 533.317322,280.304840 
	C530.810547,283.730774 529.425171,287.605743 529.049683,292.745117 
z"/>
<path fill="#000000" opacity="1.000000" stroke="none" 
	d="
M521.017090,396.163513 
	C523.932251,400.597809 524.149780,405.410858 521.436157,409.346283 
	C518.667969,413.360901 514.295227,415.666718 508.917175,414.969696 
	C506.457214,414.650848 505.031952,413.518463 504.392761,411.115112 
	C502.533081,404.122314 504.419800,400.904327 511.260559,399.141571 
	C514.454956,398.318420 517.551697,397.116486 521.017090,396.163513 
z"/>
</svg>